<svg  viewBox="0 0 701 799" fill="none" xmlns="http://www.w3.org/2000/svg">
<g id="Group">
<g id="Frame" clip-path="url(#clip0_231_4)">
<path id="Vector" d="M190.153 110.374L4.31627 624.248C2.82811 628.364 2.52201 632.813 3.43248 637.093C4.34296 641.373 6.43381 645.315 9.46933 648.473L94.7555 737.207L190.153 110.374Z" fill="white"/>
<path id="Vector_2" d="M94.7554 740.118C93.9731 740.118 93.2084 739.803 92.6479 739.221L7.36177 650.486C3.93393 646.947 1.57299 642.517 0.548574 637.702C-0.475838 632.888 -0.122415 627.883 1.56848 623.259L187.405 109.385C187.651 108.705 188.142 108.141 188.782 107.802C189.422 107.463 190.166 107.373 190.869 107.551C191.571 107.729 192.182 108.161 192.583 108.763C192.984 109.366 193.146 110.096 193.037 110.81L97.6414 737.644C97.5366 738.333 97.1879 738.961 96.6584 739.416C96.1289 739.87 95.4537 740.12 94.7554 740.12V740.118ZM182.799 139.286L7.06208 625.236C5.74392 628.839 5.46808 632.74 6.26607 636.492C7.06406 640.244 8.9037 643.697 11.5749 646.456L92.7588 730.921L182.799 139.286Z" fill="#25242E"/>
<path id="Vector_3" d="M120.096 632.936H29.667C28.8928 632.936 28.1504 632.629 27.6029 632.083C27.0555 631.537 26.748 630.796 26.748 630.024C26.748 629.251 27.0555 628.51 27.6029 627.964C28.1504 627.418 28.8928 627.111 29.667 627.111H120.096C120.871 627.111 121.613 627.418 122.161 627.964C122.708 628.51 123.015 629.251 123.015 630.024C123.015 630.796 122.708 631.537 122.161 632.083C121.613 632.629 120.871 632.936 120.096 632.936Z" fill="#25242E"/>
<path id="Vector_4" d="M355.491 2.91217H411.223C413.651 2.91217 416.004 3.75282 417.882 5.29045L448.129 30.0712C449.327 31.0532 450.293 32.2881 450.956 33.6869C451.619 35.0858 451.962 36.6139 451.962 38.1612V80.7995H411.501V32.8902L368.276 32.5465V80.7995H327.336V35.8373C327.336 33.4944 328.124 31.2192 329.574 29.3761L347.237 6.91933C348.219 5.67166 349.472 4.66282 350.902 3.96898C352.332 3.27514 353.901 2.91444 355.491 2.91411V2.91217Z" fill="white"/>
<g id="Group_2">
<path id="Vector_5" d="M451.962 83.7097H411.501C410.727 83.7097 409.984 83.4029 409.437 82.8568C408.889 82.3106 408.582 81.5699 408.582 80.7975V35.7791L371.195 35.482V80.7975C371.195 81.5699 370.887 82.3106 370.34 82.8568C369.793 83.4029 369.05 83.7097 368.276 83.7097H327.336C326.561 83.7097 325.819 83.4029 325.272 82.8568C324.724 82.3106 324.417 81.5699 324.417 80.7975V35.8373C324.421 32.8432 325.428 29.9364 327.277 27.5784L344.941 5.12155C346.191 3.52155 347.792 2.22819 349.621 1.34047C351.449 0.452752 353.457 -0.0057749 355.491 -7.29146e-06H411.224C414.321 -7.29146e-06 417.343 1.07944 419.736 3.03837L449.981 27.8191C451.516 29.0721 452.752 30.65 453.599 32.4384C454.447 34.2269 454.885 36.181 454.881 38.1593V80.7975C454.881 81.5699 454.574 82.3106 454.026 82.8568C453.479 83.4029 452.737 83.7097 451.962 83.7097ZM414.42 77.8853H449.043V38.1593C449.045 37.0424 448.797 35.9392 448.319 34.9295C447.84 33.9198 447.142 33.0289 446.276 32.3213L416.029 7.5406C414.674 6.43236 412.977 5.82597 411.224 5.82436H355.491C354.342 5.82063 353.209 6.07923 352.176 6.58031C351.143 7.0814 350.24 7.81168 349.534 8.71518L331.87 31.172C330.826 32.5037 330.258 34.1448 330.255 35.8354V77.8853H365.357V32.5465C365.357 31.7742 365.664 31.0335 366.212 30.4873C366.759 29.9412 367.502 29.6344 368.276 29.6344H368.299L411.524 29.978C412.294 29.9841 413.031 30.2937 413.573 30.8392C414.116 31.3846 414.42 32.1218 414.42 32.8902V77.8853Z" fill="#25242E"/>
<path id="Vector_6" d="M411.501 38.8505C410.727 38.8505 409.984 38.5436 409.437 37.9975C408.889 37.4514 408.582 36.7106 408.582 35.9383V16.3568C408.582 15.5844 408.889 14.8437 409.437 14.2975C409.984 13.7514 410.727 13.4446 411.501 13.4446C412.275 13.4446 413.017 13.7514 413.565 14.2975C414.112 14.8437 414.42 15.5844 414.42 16.3568V35.9363C414.42 36.7087 414.112 37.4494 413.565 37.9956C413.017 38.5417 412.275 38.8505 411.501 38.8505ZM368.276 54.7122C367.502 54.7122 366.759 54.4053 366.212 53.8592C365.664 53.3131 365.357 52.5723 365.357 51.8V26.1475C365.357 25.3752 365.664 24.6344 366.212 24.0883C366.759 23.5422 367.502 23.2353 368.276 23.2353C369.05 23.2353 369.793 23.5422 370.34 24.0883C370.887 24.6344 371.195 25.3752 371.195 26.1475V51.798C371.195 52.5704 370.887 53.3111 370.34 53.8572C369.793 54.4034 369.05 54.7122 368.276 54.7122Z" fill="#25242E"/>
</g>
<path id="Vector_7" d="M536.486 796.088H118.182C89.9293 796.088 67.589 772.21 69.5351 744.09L100.269 299.767C103.302 255.91 114.562 213.011 133.466 173.3L157.919 121.927C165.335 106.349 177.028 93.1878 191.64 83.9725C206.252 74.7573 223.184 69.8656 240.471 69.8652H427.32C465.791 69.8652 500.142 93.9005 513.244 129.986L532.963 184.297C544.13 215.05 550.935 247.209 553.181 279.841L585.138 744.107C587.072 772.222 564.736 796.09 536.49 796.09L536.486 796.088Z" fill="#DE7C04"/>
<path id="Vector_8" d="M652.233 796.088H251.686C224.459 796.088 202.506 773.843 202.929 746.684L209.864 301.522C210.565 256.524 219.929 212.08 237.447 170.609L256.444 125.632C263.426 109.102 275.14 94.9939 290.12 85.074C305.1 75.1542 322.68 69.8632 340.66 69.8633H514.178C530.802 69.8634 547.111 74.3872 561.349 82.9476C575.587 91.5079 587.215 103.781 594.981 118.444L622.669 170.724C644.575 212.087 657.976 257.401 662.086 304.003L700.809 743.175C703.318 771.616 680.851 796.088 652.235 796.088H652.233Z" fill="#DE7C04"/>
<path id="Vector_9" d="M251.69 799C237.729 799 224.65 793.537 214.858 783.614C205.065 773.693 199.792 760.561 200.01 746.639L206.945 301.479C207.656 255.897 217.012 211.487 234.756 169.481L253.755 124.504C260.939 107.431 273.022 92.8586 288.485 82.6187C303.948 72.3788 322.101 66.9284 340.66 66.953H514.179C514.953 66.953 515.695 67.2598 516.243 67.806C516.79 68.3521 517.098 69.0928 517.098 69.8652C517.098 70.6376 516.79 71.3783 516.243 71.9244C515.695 72.4706 514.953 72.7774 514.179 72.7774H340.66C323.249 72.7541 306.22 77.8669 291.714 87.473C277.208 97.0791 265.873 110.75 259.134 126.765L240.135 171.743C222.683 213.059 213.48 256.738 212.781 301.57L205.846 746.73C205.653 759.08 210.331 770.729 219.016 779.529C227.701 788.33 239.304 793.178 251.684 793.178L621.743 792.644H621.747C622.521 792.643 623.263 792.949 623.811 793.495C624.359 794.041 624.667 794.782 624.667 795.554C624.668 796.326 624.361 797.067 623.814 797.614C623.267 798.16 622.525 798.468 621.75 798.468L251.688 799.002L251.69 799Z" fill="#25242E"/>
<path id="Vector_10" d="M621.748 798.466H282.172C270.759 798.466 259.924 793.861 251.663 785.499C242.738 776.464 237.727 763.768 237.918 750.669L243.797 313.625C244.4 272.241 252.334 231.92 267.383 193.777L283.488 152.954C296.061 121.085 325.154 100.492 357.6 100.492H504.705C534.625 100.492 561.877 118.009 575.826 146.209L599.299 193.658C618.133 231.734 629.474 272.786 633.006 315.677L665.837 747.309C666.968 761.023 662.405 774.545 653.319 784.385C644.935 793.465 633.722 798.464 621.747 798.464L621.748 798.466ZM357.602 106.316C327.569 106.316 300.611 125.459 288.923 155.087L272.818 195.91C258.026 233.4 250.229 273.031 249.637 313.708L243.758 750.753C243.591 762.308 247.987 773.482 255.823 781.412C262.979 788.654 272.337 792.644 282.174 792.644H621.75C632.076 792.644 641.765 788.31 649.03 780.442C657.014 771.794 661.021 759.886 660.021 747.769L627.19 316.137C623.72 273.999 612.575 233.654 594.066 196.238L570.594 148.787C557.635 122.589 532.389 106.316 504.709 106.316H357.602Z" fill="#25242E"/>
<path id="Vector_11" d="M610.493 324.12H279.586C278.812 324.12 278.07 323.813 277.522 323.267C276.975 322.721 276.667 321.98 276.667 321.208C276.667 320.436 276.975 319.695 277.522 319.149C278.07 318.603 278.812 318.296 279.586 318.296H610.491C611.265 318.296 612.007 318.603 612.555 319.149C613.102 319.695 613.41 320.436 613.41 321.208C613.41 321.98 613.102 322.721 612.555 323.267C612.007 323.813 611.267 324.12 610.493 324.12Z" fill="#25242E"/>
<path id="Vector_12" d="M336.972 334.344C344.244 334.344 350.139 328.463 350.139 321.208C350.139 313.953 344.244 308.072 336.972 308.072C329.701 308.072 323.806 313.953 323.806 321.208C323.806 328.463 329.701 334.344 336.972 334.344Z" fill="white"/>
<path id="Vector_13" d="M336.972 337.256C328.102 337.256 320.886 330.057 320.886 321.208C320.886 312.359 328.102 305.16 336.972 305.16C345.842 305.16 353.058 312.359 353.058 321.208C353.058 330.057 345.842 337.256 336.972 337.256ZM336.972 310.984C331.321 310.984 326.725 315.57 326.725 321.208C326.725 326.846 331.321 331.432 336.972 331.432C342.624 331.432 347.22 326.846 347.22 321.208C347.22 315.57 342.624 310.984 336.972 310.984ZM279.586 341.964C278.812 341.964 278.07 341.657 277.522 341.111C276.975 340.565 276.667 339.824 276.667 339.052V305.344C276.667 304.572 276.975 303.831 277.522 303.285C278.07 302.739 278.812 302.432 279.586 302.432C280.36 302.432 281.103 302.739 281.65 303.285C282.198 303.831 282.505 304.572 282.505 305.344V339.052C282.505 339.824 282.198 340.565 281.65 341.111C281.103 341.657 280.36 341.964 279.586 341.964ZM610.409 341.964C609.635 341.964 608.892 341.657 608.345 341.111C607.798 340.565 607.49 339.824 607.49 339.052V305.344C607.49 304.572 607.798 303.831 608.345 303.285C608.892 302.739 609.635 302.432 610.409 302.432C611.183 302.432 611.926 302.739 612.473 303.285C613.021 303.831 613.328 304.572 613.328 305.344V339.052C613.328 339.824 613.021 340.565 612.473 341.111C611.926 341.657 611.183 341.964 610.409 341.964Z" fill="#25242E"/>
<path id="Vector_14" d="M326.417 410.928H347.531C349.315 410.928 350.762 409.485 350.762 407.706V336.452C350.762 334.672 349.315 333.229 347.531 333.229H326.417C324.633 333.229 323.187 334.672 323.187 336.452V407.706C323.187 409.485 324.633 410.928 326.417 410.928Z" fill="white"/>
<path id="Vector_15" d="M347.531 413.841H326.415C324.785 413.839 323.222 413.191 322.07 412.041C320.917 410.891 320.269 409.332 320.268 407.706V336.45C320.269 334.824 320.917 333.265 322.07 332.115C323.222 330.964 324.785 330.317 326.415 330.315H347.531C349.162 330.317 350.725 330.964 351.878 332.114C353.031 333.264 353.679 334.824 353.681 336.45V407.706C353.679 409.332 353.031 410.892 351.878 412.042C350.725 413.192 349.162 413.839 347.531 413.841ZM326.415 336.142C326.333 336.142 326.254 336.175 326.196 336.233C326.138 336.291 326.106 336.37 326.106 336.452V407.708C326.106 407.878 326.244 408.018 326.415 408.018H347.531C347.614 408.018 347.693 407.985 347.752 407.927C347.81 407.869 347.843 407.79 347.843 407.708V336.452C347.843 336.37 347.81 336.291 347.752 336.233C347.693 336.174 347.614 336.142 347.531 336.142H326.415Z" fill="#25242E"/>
</g>
</g>
<defs>
<clipPath id="clip0_231_4">
<rect width="701" height="799" fill="white"/>
</clipPath>
</defs>
</svg>
