<svg  viewBox="0 0 958 1812" fill="none" xmlns="http://www.w3.org/2000/svg">
<g id="simplistic-suitcase 1" clip-path="url(#clip0_231_81)">
<g id="Group">
<path id="Vector" d="M221.146 1812C261.139 1812 293.56 1779.58 293.56 1739.59C293.56 1699.59 261.139 1667.17 221.146 1667.17C181.153 1667.17 148.733 1699.59 148.733 1739.59C148.733 1779.58 181.153 1812 221.146 1812Z" fill="#DE7C04"/>
<path id="Vector_2" d="M729.489 1812C769.482 1812 801.902 1779.58 801.902 1739.59C801.902 1699.59 769.482 1667.17 729.489 1667.17C689.496 1667.17 657.075 1699.59 657.075 1739.59C657.075 1779.58 689.496 1812 729.489 1812Z" fill="#DE7C04"/>
<path id="Vector_3" d="M511.439 0H435.322C426.857 0 419.996 6.86145 419.996 15.3255V27.5866C419.996 36.0507 426.857 42.9121 435.322 42.9121H511.439C519.903 42.9121 526.764 36.0507 526.764 27.5866V15.3255C526.764 6.86145 519.903 0 511.439 0Z" fill="#DE7C04"/>
<path id="Vector_4" d="M198.541 149.936H246.816V431.927H198.541V149.936Z" fill="#DE7C04"/>
<path id="Vector_5" d="M703.01 149.936H751.328V431.927H703.01V149.936Z" fill="#DE7C04"/>
</g>
<path id="Vector_6" d="M706.117 17.8375H479L474.934 17.8365H243.752C218.281 17.6835 198.542 27.4756 198.542 53.3615V150.128H246.817V78.4091C246.817 73.2369 251.263 69.2642 256.353 69.2642H693.517C698.606 69.2642 703.053 73.2369 703.053 78.4091V150.128H751.328V53.3605C751.328 27.4746 731.588 17.6825 706.117 17.8375Z" fill="white"/>
<path id="Vector_7" d="M751.328 157.632H703.053C698.909 157.632 695.549 154.272 695.549 150.128V78.4091C695.549 77.4417 694.478 76.7675 693.517 76.7675H256.353C255.392 76.7675 254.32 77.4417 254.32 78.4091V150.128C254.32 154.272 250.961 157.632 246.817 157.632H198.542C194.398 157.632 191.038 154.272 191.038 150.128V53.3616C191.038 41.1964 194.801 31.2882 202.222 23.9111C211.269 14.9183 225.674 10.2284 243.798 10.3344H479.001H706.088C724.251 10.2494 738.604 14.9223 747.648 23.9111C755.07 31.2872 758.832 41.1954 758.832 53.3616V150.128C758.832 154.272 755.473 157.632 751.329 157.632H751.328ZM710.556 142.625H743.825V53.3616C743.825 45.2251 741.615 39.0735 737.069 34.5546C730.999 28.5211 720.509 25.3387 706.713 25.3387C706.53 25.3387 706.348 25.3387 706.163 25.3407H470.87H243.753C229.651 25.2647 218.952 28.441 212.802 34.5546C208.256 39.0735 206.046 45.2251 206.046 53.3616V142.625H239.315V78.4091C239.315 69.2293 246.959 61.7611 256.354 61.7611H693.518C702.914 61.7611 710.557 69.2293 710.557 78.4091V142.625H710.556Z" fill="#DE7C04"/>
<path id="Vector_8" d="M816.675 362.451H141.325C67.5466 362.451 7.73703 422.261 7.73703 496.039V1606.13C7.73703 1679.9 67.5466 1739.71 141.325 1739.71H816.675C890.453 1739.71 950.263 1679.9 950.263 1606.13V496.039C950.263 422.261 890.453 362.451 816.675 362.451Z" fill="#DE7C04"/>
<path id="Vector_9" d="M816.675 1747.22H141.325C63.5276 1747.22 0.233887 1683.92 0.233887 1606.13V496.039C0.233887 418.242 63.5276 354.948 141.325 354.948H816.674C894.472 354.948 957.765 418.242 957.765 496.039V1606.13C957.765 1683.92 894.471 1747.22 816.674 1747.22H816.675ZM141.325 369.954C71.8011 369.954 15.2402 426.516 15.2402 496.039V1606.13C15.2402 1675.65 71.8021 1732.21 141.325 1732.21H816.674C886.198 1732.21 942.759 1675.65 942.759 1606.13V496.039C942.759 426.516 886.197 369.954 816.674 369.954H141.325Z" fill="#DE7C04"/>
<path id="Vector_10" d="M476.701 507.023H476.7C452.154 507.023 432.256 526.921 432.256 551.467V1546.1C432.256 1570.65 452.154 1590.54 476.7 1590.54H476.701C501.247 1590.54 521.145 1570.65 521.145 1546.1V551.467C521.145 526.921 501.247 507.023 476.701 507.023Z" fill="#F3DFBF"/>
<path id="Vector_11" d="M224.297 507.023H224.296C199.751 507.023 179.853 526.921 179.853 551.467V1546.1C179.853 1570.65 199.751 1590.54 224.296 1590.54H224.297C248.843 1590.54 268.741 1570.65 268.741 1546.1V551.467C268.741 526.921 248.843 507.023 224.297 507.023Z" fill="#F3DFBF"/>
<path id="Vector_12" d="M726.509 509.322H726.508C701.963 509.322 682.065 529.22 682.065 553.766V1548.4C682.065 1572.95 701.963 1592.84 726.508 1592.84H726.509C751.055 1592.84 770.953 1572.95 770.953 1548.4V553.766C770.953 529.22 751.055 509.322 726.509 509.322Z" fill="#F3DFBF"/>
</g>
<defs>
<clipPath id="clip0_231_81">
<rect width="958" height="1812" fill="white"/>
</clipPath>
</defs>
</svg>
