<svg xmlns="http://www.w3.org/2000/svg" viewBox="0 0 1000 1000" ><g transform="translate(-146.0 506.0) rotate(0.0 644.5 241.0) scale(1.0 1.0)"><svg width="1289" height="482" viewBox="0 0 1289 482"><g><path fill="#e4211b" d="M303.22 201.7v86.87h-9.41q-5.92 0-9.42-3.47t-3.5-9.6v-86.94l1.02-1.02h8.17q6.5 0 9.82 3.36 3.32 3.35 3.32 10.8Zm13.58 67.67h25.84q0 10.66-3.43 14.93t-11.68 4.27h-33.72l-11.9-16.13q9.2-1.61 18.28-2.34 9.09-.73 16.61-.73Zm100.38-17.52q0 11.61-3.8 20.26-3.8 8.65-11.24 13.43-7.45 4.78-18.4 4.78t-18.39-4.82q-7.45-4.81-11.21-13.47-3.76-8.65-3.76-20.18 0-11.68 3.8-20.33 3.79-8.65 11.24-13.43 7.45-4.78 18.32-4.78 11.03 0 18.47 4.81 7.45 4.82 11.21 13.47 3.76 8.65 3.76 20.26Zm-44.46 0q0 6.13.8 11.17.81 5.04 3.18 8.03 2.37 2.99 7.12 2.99 4.74 0 7.08-2.99 2.33-2.99 3.14-8.03.8-5.04.8-11.17t-.8-11.21q-.81-5.07-3.14-8.06-2.34-2.99-7.08-2.99-4.75 0-7.12 2.99t-3.18 8.06q-.8 5.08-.8 11.21Zm94.9-4.67q.07-5.55-.55-9.49-.62-3.94-2.59-6.06-1.97-2.12-5.99-2.12-5.32 0-7.55 5.4-2.23 5.41-2.23 17.16t3.4 16.5q3.39 4.74 9.82 4.74 4.38 0 8.57-1.93 4.2-1.94 7.7-4.42 2.63 1.53 5.08 5.26 2.44 3.72 3.17 7.01-4.81 5.03-12.41 8.06-7.59 3.03-15.62 3.03-7.88 0-13.87-2.74-5.98-2.73-9.96-7.81-3.98-5.07-6.03-12.12-2.04-7.04-2.04-15.58 0-14.09 4.78-22.59 4.78-8.51 12.23-12.34t15.4-3.83q6.21 0 11.39 1.78 5.18 1.79 8.94 5.01 3.76 3.21 5.81 7.59 2.04 4.38 2.04 9.56 0 5.48-2.99 8.1-3 2.63-7.74 2.63-2.7 0-4.71-.22t-4.05-.58Zm53.73-53.22v94.24q-4.67.81-10.73.81-5.48 0-10.52-.81V181.77l1.03-1.02h8.46q6.5 0 9.13 2.95 2.63 2.96 2.63 10.26Zm33.58 65.41 3.79 10.95q1.76 5.47 3.25 8.07 1.5 2.59 3.76 4.19-2.55 2.85-6.5 4.78-3.94 1.94-8.1 1.94-4.82 0-7.19-2.26-2.37-2.27-4.2-7.6l-4.52-12.92q-1.61-4.74-3.65-6.27-2.05-1.54-5.33-1.54-2.99 0-5.29.22t-4.79.59l-5.76.65v-15.04h22.41q7.96 0 13.72 3.36 5.77 3.36 8.4 10.88Zm6.79-43.07-11.83 22.26q-3.28 6.28-9.31 9.38-6.02 3.11-15.07 3.11h-12.56v-10l11.1-.22q1.53 0 2.37-.48.84-.47 1.64-2l8.33-15.41q2.04-4.01 4.96-6.06 2.92-2.04 7.37-2.04 3.43 0 6.28.07 2.85.08 5.84.22l.88 1.17Zm70.73 42.56h-46.94v-15.04h28.69v-1.68q0-3.65-1.02-6.64-1.02-2.99-3.28-4.82-2.27-1.82-5.99-1.82-5.62 0-7.99 4.63-2.38 4.64-2.38 13.98v6.57q0 5.26.95 9.71.95 4.45 3.91 7.19t8.94 2.74q4.97 0 9.82-1.35 4.85-1.35 9.31-3.25 2.41 2.41 3.87 6.06 1.46 3.65 1.97 6.86-5.48 4.01-13.11 6.17-7.62 2.15-15.36 2.15-9.49 0-15.73-3.17-6.25-3.18-9.86-8.58-3.61-5.4-5.11-12.19-1.5-6.79-1.5-14.09 0-11.02 3.36-19.82t10.48-13.98q7.12-5.18 18.5-5.18 9.64 0 16.39 4.08 6.75 4.09 10.33 11.1t3.58 15.84q0 4.67-.4 7.81-.4 3.14-1.43 6.72Zm64.24-43.22q0 3.87-1.31 9.82t-4.09 10.48q-1.82-.66-3.61-.92-1.79-.25-3.69-.47-3.06 0-5.51 1.17-2.45 1.17-4.38 3.28-1.93 2.12-3.58 5.15-1.64 3.03-3.1 6.75l-2.55-3.28q.36-5.92 1.57-11.79 1.2-5.88 3.65-10.73 2.44-4.86 6.64-7.78 4.2-2.92 10.62-2.92 3.14 0 5.18.33 2.05.33 4.16.91Zm-52.41 9.86q.66-2.92 2.7-6.28 2.04-3.36 4.09-4.96 9.71.94 14.64 7.51 4.92 6.57 5.87 17.23v49.2q-4.82.81-10.88.81-5.91 0-10.87-.81v-47.52q0-6.42-1.86-10.11-1.87-3.69-3.69-5.07Zm166.88-6.35q0 7-2.67 12.41-2.66 5.4-6.79 9.01-4.12 3.62-8.5 5.29 4.09 1.39 6.79 4.97t4.38 8.32l4.67 12.99q1.24 3.58 3.03 6.25 1.79 2.66 4.05 4.49-2.04 2.84-6.2 4.7-4.16 1.87-8.54 1.87-6.06 0-8.8-3.25-2.74-3.25-5-9.68l-5.55-15.84q-1.31-3.94-3.98-6.75-2.66-2.81-8.65-2.81h-15.91V234.4q2.84-.14 7.04-.29 4.2-.14 8-.25 3.79-.11 5.54-.11 5.77 0 8.87-2.08 3.11-2.08 4.27-5.44 1.17-3.36 1.17-7.08 0-3.95-1.17-7.23-1.16-3.29-4.27-5.29-3.1-2.01-8.87-2.01h-3.43q-1.9 0-3.94-.04-2.04-.03-4.16-.11v83.73q-2.77.52-5.77.66-2.99.15-5.33.15-2.04 0-5.18-.15-3.14-.14-5.84-.66v-98.98l1.02-.95q9.2-.22 17.74-.4 8.54-.19 16.72-.19 10.15 0 18.1 3.32 7.96 3.33 12.56 10.3 4.6 6.97 4.6 17.85Zm72.85 39.71h-46.94v-15.04h28.69v-1.68q0-3.65-1.02-6.64-1.02-2.99-3.29-4.82-2.26-1.82-5.98-1.82-5.62 0-7.99 4.63-2.38 4.64-2.38 13.98v6.57q0 5.26.95 9.71.95 4.45 3.91 7.19 2.95 2.74 8.94 2.74 4.96 0 9.82-1.35 4.85-1.35 9.31-3.25 2.4 2.41 3.86 6.06 1.46 3.65 1.98 6.86-5.48 4.01-13.11 6.17-7.63 2.15-15.36 2.15-9.49 0-15.74-3.17-6.24-3.18-9.85-8.58-3.61-5.4-5.11-12.19-1.5-6.79-1.5-14.09 0-11.02 3.36-19.82t10.48-13.98q7.11-5.18 18.5-5.18 9.64 0 16.39 4.08 6.75 4.09 10.33 11.1t3.58 15.84q0 4.67-.4 7.81-.41 3.14-1.43 6.72Zm17.16-44.39h8.25q6.27 0 9.41 4.24 3.14 4.23 3.14 11.53v57.96q-4.82.81-10.88.81-5.91 0-10.95-.81v-72.7l1.03-1.03Zm61.02 25.34v30.51q0 4.23.81 7.92.8 3.69 2.7 6.46-2.41 1.97-5.95 3.29-3.54 1.31-7.63 1.31-6.57 0-9.12-3.47-2.56-3.47-2.56-9.96v-31.98q0-5.25-1.39-7.73-1.38-2.49-5.25-2.49-2.41 0-5.59 1.28-3.17 1.28-6.2 4.09-3.03 2.81-5.29 7.41v-19.2q5.11-5.11 11.27-9.13 6.17-4.01 13.91-4.01 6.72 0 11.24 3.32 4.53 3.32 6.79 9.09t2.26 13.29Zm20.74 29.56v-62.78q0-7.3 2.7-10.22 2.7-2.92 9.12-2.92h8.47l.95.95v71.1q0 3.21 1.5 5 1.49 1.79 4.92 1.79h8.47q1.68 5.04 1.68 10.37 0 1.16-.07 2.48-.08 1.31-.44 2.41-3.94.51-9.05.95-5.11.43-9.49.43-9.57 0-14.16-4.78-4.6-4.78-4.6-14.78Zm12.48-53.65 26.21-.44q.95 3.87.95 7.66 0 4.16-.95 7.89l-26.79-.44-23.22.44q-.95-3.73-.95-7.89 0-3.79.95-7.66l23.8.44Z"/></g></svg></g><g transform="translate(239.0 130.0) rotate(0.0 283.0 283.0) scale(11.32 11.32)"><svg width="50" height="50" viewBox="0 0 50 50"><path d="M4 4a1 1 0 0 0-1 1v40a1 1 0 0 0 1 1h11a1 1 0 0 0 1-1V5a1 1 0 0 0-1-1H4zm15 0a1 1 0 0 0-1 1v40a1 1 0 0 0 1 1h11a1 1 0 0 0 1-1V5a1 1 0 0 0-1-1H19zm15 0a1 1 0 0 0-1 1v40a1 1 0 0 0 1 1h11a1 1 0 0 0 1-1V5a1 1 0 0 0-1-1H34zM7 9h5a1 1 0 1 1 0 2H7a1 1 0 1 1 0-2zm15 0h5a1 1 0 1 1 0 2h-5a1 1 0 1 1 0-2zm15 0h5a1 1 0 1 1 0 2h-5a1 1 0 1 1 0-2zM7 12h5a1 1 0 1 1 0 2H7a1 1 0 1 1 0-2zm15 0h5a1 1 0 1 1 0 2h-5a1 1 0 1 1 0-2zm15 0h5a1 1 0 1 1 0 2h-5a1 1 0 1 1 0-2zM12 22a1 1 0 0 1 1 1v4a1 1 0 1 1-2 0v-4a1 1 0 0 1 1-1zm15 0a1 1 0 0 1 1 1v4a1 1 0 1 1-2 0v-4a1 1 0 0 1 1-1zm15 0a1 1 0 0 1 1 1v4a1 1 0 1 1-2 0v-4a1 1 0 0 1 1-1zM7 37h5a1 1 0 1 1 0 2H7a1 1 0 1 1 0-2zm15 0h5a1 1 0 1 1 0 2h-5a1 1 0 1 1 0-2zm15 0h5a1 1 0 1 1 0 2h-5a1 1 0 1 1 0-2zM7 40h5a1 1 0 1 1 0 2H7a1 1 0 1 1 0-2zm15 0h5a1 1 0 1 1 0 2h-5a1 1 0 1 1 0-2zm15 0h5a1 1 0 1 1 0 2h-5a1 1 0 1 1 0-2z" fill="#e4211b"/></svg></g></svg>