<svg viewBox="0 0 573 1194" fill="none" xmlns="http://www.w3.org/2000/svg">
<g id="simplistic-suitcase-on-wheels-1 1" clip-path="url(#clip0_231_95)">
<path id="Vector" d="M465.187 523.841H107.813C52.5414 523.841 7.73508 568.647 7.73508 623.918V1004.66C7.73508 1059.93 52.5414 1104.74 107.813 1104.74H465.187C520.459 1104.74 565.265 1059.93 565.265 1004.66V623.918C565.265 568.647 520.459 523.841 465.187 523.841Z" fill="#DE7C04"/>
<path id="Vector_2" d="M465.187 1112.25H107.813C48.4907 1112.25 0.229248 1063.98 0.229248 1004.66V623.918C0.229248 564.597 48.4907 516.335 107.813 516.335H465.187C524.509 516.335 572.771 564.596 572.771 623.918V1004.66C572.771 1063.98 524.509 1112.25 465.187 1112.25ZM107.813 531.347C56.7681 531.347 15.2409 572.874 15.2409 623.918V1004.66C15.2409 1055.71 56.7681 1097.23 107.813 1097.23H465.187C516.232 1097.23 557.759 1055.71 557.759 1004.66V623.918C557.759 572.874 516.232 531.347 465.187 531.347H107.813Z" fill="#DE7C04"/>
<path id="Vector_3" d="M286.499 676.18C285.479 676.18 284.457 675.972 283.501 675.555L114.907 602.108C111.106 600.453 109.368 596.03 111.023 592.23C112.679 588.429 117.101 586.69 120.902 588.346L286.498 660.487L452.095 588.346C455.897 586.69 460.319 588.429 461.975 592.23C463.63 596.03 461.892 600.453 458.092 602.108L289.498 675.555C288.542 675.972 287.52 676.18 286.499 676.18Z" fill="white"/>
<path id="Vector_4" d="M286.499 767.35C285.479 767.35 284.457 767.142 283.501 766.725L114.907 693.278C111.106 691.623 109.368 687.2 111.023 683.4C112.679 679.6 117.101 677.86 120.902 679.516L286.498 751.657L452.095 679.516C455.897 677.86 460.319 679.599 461.975 683.4C463.63 687.2 461.892 691.623 458.092 693.278L289.498 766.725C288.542 767.142 287.52 767.35 286.499 767.35Z" fill="white"/>
<path id="Vector_5" d="M286.499 858.52C285.479 858.52 284.457 858.311 283.501 857.895L114.907 784.448C111.106 782.792 109.368 778.369 111.023 774.569C112.679 770.768 117.101 769.031 120.902 770.685L286.498 842.826L452.095 770.685C455.897 769.029 460.319 770.768 461.975 774.569C463.63 778.369 461.892 782.793 458.092 784.448L289.498 857.895C288.542 858.311 287.52 858.52 286.499 858.52Z" fill="white"/>
<path id="Vector_6" d="M286.499 949.689C285.479 949.689 284.457 949.481 283.501 949.065L114.907 875.618C111.106 873.962 109.368 869.539 111.023 865.739C112.679 861.938 117.101 860.2 120.902 861.855L286.498 933.996L452.095 861.855C455.897 860.2 460.319 861.938 461.975 865.739C463.63 869.539 461.892 873.962 458.092 875.618L289.498 949.065C288.542 949.481 287.52 949.689 286.499 949.689Z" fill="white"/>
<path id="Vector_7" d="M286.499 1040.86C285.479 1040.86 284.457 1040.65 283.501 1040.23L114.907 966.788C111.106 965.132 109.368 960.709 111.023 956.909C112.679 953.108 117.101 951.37 120.902 953.025L286.498 1025.17L452.095 953.025C455.897 951.37 460.319 953.108 461.975 956.909C463.63 960.709 461.892 965.132 458.092 966.788L289.498 1040.23C288.542 1040.65 287.52 1040.86 286.499 1040.86Z" fill="white"/>
<path id="Vector_8" d="M153.238 50.9065H189.67V523.842H153.238V50.9065Z" fill="#F7E5C6"/>
<path id="Vector_9" d="M189.669 531.346H153.238C149.093 531.346 145.732 527.986 145.732 523.841V50.9065C145.732 46.7612 149.093 43.4006 153.238 43.4006H189.669C193.815 43.4006 197.175 46.7612 197.175 50.9065V523.842C197.175 527.987 193.815 531.346 189.669 531.346ZM160.744 516.335H182.163V58.4123H160.744V516.335Z" fill="#DE7C04"/>
<path id="Vector_10" d="M383.33 50.9065H419.762V523.842H383.33V50.9065Z" fill="#F7E5C6"/>
<path id="Vector_11" d="M419.762 531.346H383.331C379.185 531.346 375.825 527.986 375.825 523.841V50.9065C375.825 46.7612 379.185 43.4006 383.331 43.4006H419.762C423.907 43.4006 427.268 46.7612 427.268 50.9065V523.842C427.268 527.987 423.907 531.346 419.762 531.346ZM390.836 516.335H412.256V58.4123H390.836V516.335Z" fill="#DE7C04"/>
<path id="Vector_12" d="M419.762 50.9066H153.238V37.5292C153.238 20.9473 166.679 7.50586 183.261 7.50586H389.739C406.321 7.50586 419.762 20.9473 419.762 37.5292V50.9066Z" fill="white"/>
<g id="Group">
<path id="Vector_13" d="M419.762 58.4124H153.238C149.093 58.4124 145.732 55.0517 145.732 50.9065V37.5291C145.732 16.8351 162.567 0 183.261 0H389.738C410.432 0 427.268 16.8351 427.268 37.5291V50.9065C427.268 55.0517 423.907 58.4124 419.762 58.4124ZM160.744 43.4007H412.256V37.5291C412.256 25.1135 402.155 15.0117 389.739 15.0117H183.262C170.846 15.0117 160.745 25.1135 160.745 37.5291V43.4007H160.744Z" fill="#DE7C04"/>
<path id="Vector_14" d="M99.5303 1186.49C122.116 1186.49 140.426 1168.18 140.426 1145.6C140.426 1123.01 122.116 1104.7 99.5303 1104.7C76.9442 1104.7 58.6346 1123.01 58.6346 1145.6C58.6346 1168.18 76.9442 1186.49 99.5303 1186.49Z" fill="#DE7C04"/>
<path id="Vector_15" d="M99.5303 1194C72.8416 1194 51.1288 1172.29 51.1288 1145.6C51.1288 1118.91 72.8416 1097.2 99.5303 1097.2C126.219 1097.2 147.932 1118.91 147.932 1145.6C147.932 1172.29 126.219 1194 99.5303 1194ZM99.5303 1112.21C81.119 1112.21 66.1404 1127.19 66.1404 1145.6C66.1404 1164.01 81.119 1178.99 99.5303 1178.99C117.942 1178.99 132.92 1164.01 132.92 1145.6C132.92 1127.19 117.942 1112.21 99.5303 1112.21Z" fill="#DE7C04"/>
<path id="Vector_16" d="M473.47 1186.49C496.056 1186.49 514.365 1168.18 514.365 1145.6C514.365 1123.01 496.056 1104.7 473.47 1104.7C450.883 1104.7 432.574 1123.01 432.574 1145.6C432.574 1168.18 450.883 1186.49 473.47 1186.49Z" fill="#DE7C04"/>
<path id="Vector_17" d="M473.47 1194C446.781 1194 425.068 1172.29 425.068 1145.6C425.068 1118.91 446.781 1097.2 473.47 1097.2C500.158 1097.2 521.871 1118.91 521.871 1145.6C521.871 1172.29 500.158 1194 473.47 1194ZM473.47 1112.21C455.058 1112.21 440.08 1127.19 440.08 1145.6C440.08 1164.01 455.058 1178.99 473.47 1178.99C491.881 1178.99 506.86 1164.01 506.86 1145.6C506.86 1127.19 491.881 1112.21 473.47 1112.21Z" fill="#DE7C04"/>
</g>
</g>
<defs>
<clipPath id="clip0_231_95">
<rect width="573" height="1194" fill="white"/>
</clipPath>
</defs>
</svg>
