<?xml version="1.0" standalone="no"?>
<!DOCTYPE svg PUBLIC "-//W3C//DTD SVG 20010904//EN"
 "http://www.w3.org/TR/2001/REC-SVG-20010904/DTD/svg10.dtd">
<svg version="1.0" xmlns="http://www.w3.org/2000/svg"
 width="700.000000pt" height="700.000000pt" viewBox="0 0 700.000000 700.000000"
 preserveAspectRatio="xMidYMid meet">
<metadata>
Created by potrace 1.14, written by Peter Selinger 2001-2017
</metadata>
<g transform="translate(0.000000,700.000000) scale(0.100000,-0.100000)"
fill="#000000" stroke="none">
<path d="M1988 5772 c-26 -2 -44 -11 -58 -29 -20 -26 -20 -34 -20 -1634 l0
-1608 24 -28 24 -28 463 0 463 0 28 23 28 24 0 1613 0 1614 -24 27 -23 28
-434 0 c-239 1 -451 0 -471 -2z m655 -400 c27 -3 57 -39 57 -71 0 -15 -9 -40
-21 -55 l-20 -26 -230 0 -230 0 -24 25 c-39 38 -31 96 17 122 14 7 382 11 451
5z m38 -261 c27 -33 24 -77 -6 -107 l-25 -25 -231 3 c-229 3 -231 3 -250 27
-27 33 -24 77 6 107 l25 25 231 -3 c229 -3 231 -3 250 -27z m-22 -776 c40 -20
47 -51 45 -205 -3 -218 -2 -209 -30 -237 -20 -20 -31 -24 -57 -19 -18 4 -41
15 -52 26 -18 19 -20 34 -20 209 0 170 2 191 19 210 10 11 28 22 40 24 11 2
22 5 24 6 2 0 16 -6 31 -14z m-2 -1186 c28 -11 52 -57 44 -88 -13 -51 -43 -60
-201 -61 -308 -2 -298 -3 -325 25 -33 32 -33 78 0 109 25 23 29 23 243 23 119
0 227 -3 239 -8z m11 -242 c6 -5 18 -20 26 -35 12 -23 12 -32 1 -60 -8 -18
-25 -36 -37 -41 -13 -5 -124 -8 -247 -7 -221 1 -223 1 -242 25 -24 30 -24 72
0 102 18 22 28 24 148 29 147 6 332 -1 351 -13z"/>
<path d="M3163 5772 c-13 -2 -32 -15 -43 -29 -20 -26 -20 -36 -20 -1638 l0
-1612 26 -24 26 -24 465 0 465 0 24 28 24 28 0 1610 0 1610 -25 24 c-13 14
-32 25 -42 26 -53 3 -881 4 -900 1z m678 -401 c3 0 15 -10 27 -21 30 -28 29
-74 -3 -105 l-24 -25 -224 0 c-212 0 -226 1 -251 21 -41 33 -32 110 16 128 17
6 436 8 459 2z m30 -260 c27 -33 24 -77 -6 -107 l-25 -25 -231 3 c-229 3 -231
3 -250 27 -27 33 -24 77 6 107 l25 25 231 -3 c229 -3 231 -3 250 -27z m-22
-776 c16 -8 31 -22 35 -30 8 -22 8 -368 0 -390 -7 -18 -55 -45 -79 -45 -9 0
-29 13 -44 28 l-28 28 1 185 c1 197 4 211 51 229 28 12 33 12 64 -5z m21
-1205 c27 -35 25 -76 -5 -105 -22 -23 -32 -25 -122 -26 -304 -1 -347 1 -373
20 -47 34 -32 124 22 133 13 2 121 4 241 3 l218 0 19 -25z m3 -241 c22 -28 22
-71 -2 -100 -19 -24 -19 -24 -256 -24 -237 0 -237 0 -256 24 -26 31 -25 83 2
107 19 17 43 20 223 24 222 6 263 1 289 -31z"/>
<path d="M4364 5772 c-17 -2 -41 -13 -53 -26 l-22 -23 0 -1610 c0 -885 3
-1616 6 -1624 16 -42 29 -43 510 -44 l460 -1 26 26 27 26 0 1614 0 1613 -24
23 c-13 13 -29 24 -36 25 -37 3 -868 4 -894 1z m663 -400 c23 -3 53 -46 53
-74 0 -17 -10 -39 -25 -53 l-24 -25 -230 0 -229 0 -25 30 c-21 25 -24 35 -17
60 12 40 19 50 42 59 17 6 411 8 455 3z m32 -261 c29 -34 27 -76 -5 -106 -27
-25 -27 -25 -250 -25 -219 0 -223 0 -250 23 -37 32 -36 83 2 115 26 23 29 23
254 20 227 -3 228 -3 249 -27z m-16 -776 c31 -13 37 -50 37 -236 l0 -180 -26
-24 c-30 -28 -51 -31 -88 -14 -38 18 -45 57 -44 243 l0 170 28 27 c27 27 52
31 93 14z m11 -1197 c9 -10 20 -33 23 -52 4 -29 1 -39 -22 -60 -24 -22 -37
-26 -114 -28 -47 -2 -151 -1 -229 2 -140 5 -144 6 -167 32 -34 39 -19 99 30
118 11 5 119 8 241 7 195 -2 222 -4 238 -19z m1 -243 c42 -41 29 -103 -27
-124 -14 -5 -122 -9 -240 -8 -197 2 -218 4 -237 21 -32 29 -29 88 5 115 25 20
39 21 251 21 l224 0 24 -25z"/>
<path d="M2508 2192 c-32 -4 -29 47 -30 -442 l0 -305 29 -5 c24 -5 59 -5 111
-1 9 1 12 24 11 84 -1 133 -3 126 32 123 39 -3 52 -21 80 -104 29 -87 57 -115
106 -107 38 6 83 29 83 43 0 5 -4 12 -9 18 -5 5 -23 49 -41 97 -25 65 -42 96
-66 115 -32 25 -32 25 -12 46 22 24 109 188 103 194 -9 9 -113 4 -133 -7 -11
-6 -39 -45 -62 -87 -39 -70 -63 -95 -76 -81 -3 3 -6 81 -5 174 0 92 -4 183
-10 201 -10 30 -16 34 -74 46 -5 1 -22 0 -37 -2z"/>
<path d="M947 2142 c-2 -4 -3 -152 -3 -329 l1 -323 27 -26 c26 -27 26 -27 181
-26 193 1 207 7 221 95 l6 37 -48 1 c-26 0 -89 0 -139 -1 l-93 -1 0 260 c0
255 0 260 -23 286 -17 21 -33 27 -74 30 -29 2 -54 0 -56 -3z"/>
<path d="M4228 2142 l-68 -3 1 -349 c1 -394 -9 -352 79 -352 83 0 76 -13 75
132 l0 130 40 0 c60 0 79 -19 114 -117 50 -136 69 -159 126 -148 11 2 27 4 35
4 8 1 26 10 39 20 l24 18 -21 23 c-12 13 -31 53 -43 89 -25 76 -65 141 -86
141 -8 0 5 15 28 33 74 56 99 135 74 232 -16 61 -73 118 -136 135 -45 12 -161
17 -281 12z m230 -131 c50 -27 49 -141 -1 -174 -14 -9 -45 -14 -82 -13 l-60 1
0 102 0 102 61 -3 c33 -2 70 -9 82 -15z"/>
<path d="M5901 2094 c-34 -14 -41 -31 -41 -95 l0 -49 -40 0 c-22 0 -40 -3 -41
-7 0 -5 -3 -19 -5 -33 -3 -14 -2 -35 1 -47 5 -20 11 -22 45 -20 l39 3 -1 -152
c0 -87 5 -166 11 -186 16 -48 60 -71 135 -71 119 1 117 0 114 58 l-3 50 -42 3
c-23 2 -46 9 -53 17 -11 13 -17 255 -7 272 3 4 30 7 61 7 36 -1 56 2 57 9 2
18 2 50 1 75 -2 20 -7 22 -62 22 -41 0 -60 4 -61 13 -1 6 -1 40 -1 75 1 34 -2
62 -6 63 -37 6 -78 3 -101 -7z"/>
<path d="M1625 1962 c-80 -15 -129 -51 -167 -124 -31 -61 -33 -213 -2 -278 43
-92 107 -132 207 -132 103 0 170 42 210 132 30 65 29 206 0 272 -25 55 -63 93
-111 114 -35 14 -104 23 -137 16z m75 -122 c26 -14 40 -63 40 -139 0 -124 -30
-173 -95 -157 -38 10 -55 59 -55 156 0 81 15 132 42 143 21 9 48 8 68 -3z"/>
<path d="M2121 1950 c-28 -9 -61 -26 -72 -36 -72 -64 -101 -189 -74 -314 34
-158 189 -218 352 -138 55 28 62 50 28 93 l-26 35 -38 -20 c-118 -60 -172 -15
-168 140 2 103 20 140 67 140 37 0 60 -32 60 -82 0 -42 14 -50 70 -43 47 6 69
35 66 84 -8 115 -139 184 -265 141z"/>
<path d="M3155 1959 c-81 -18 -126 -60 -157 -146 -21 -59 -18 -210 5 -263 34
-79 105 -123 199 -122 70 0 112 9 161 33 41 21 45 35 22 79 -17 33 -22 35 -60
20 -99 -38 -176 -11 -187 65 -3 19 3 20 131 20 l135 1 7 26 c20 76 -9 196 -58
240 -45 41 -134 62 -198 47z m85 -114 c19 -6 31 -30 36 -72 2 -22 -1 -23 -73
-23 -64 0 -74 2 -69 16 3 9 6 21 6 28 0 8 9 25 20 39 20 25 33 27 80 12z"/>
<path d="M4869 1944 c-60 -28 -94 -74 -115 -154 -27 -105 -6 -235 48 -302 30
-36 97 -61 164 -60 72 1 90 5 155 33 50 23 55 42 20 88 -17 22 -21 23 -56 11
-71 -23 -122 -21 -155 7 -20 16 -30 34 -30 52 l0 27 133 0 132 -1 9 49 c13 63
-5 147 -39 192 -57 74 -175 100 -266 58z m126 -94 c17 0 30 -23 40 -67 l7 -33
-70 0 c-77 0 -85 7 -69 53 11 32 46 60 65 52 8 -3 20 -5 27 -5z"/>
<path d="M3510 1928 c-24 -40 -24 -42 -2 -75 15 -23 17 -54 18 -217 l1 -190
24 -6 c13 -4 40 -5 59 -4 19 1 43 2 53 3 16 1 18 14 16 162 -1 161 -1 162 25
188 21 20 34 25 70 23 51 -2 55 2 72 75 15 63 6 73 -63 67 -54 -4 -79 -18
-102 -55 l-18 -30 -17 25 c-19 30 -50 51 -89 60 -23 5 -30 2 -47 -26z"/>
<path d="M5280 1871 c-2 -295 -1 -424 3 -427 4 -5 87 -8 125 -6 22 2 22 3 22
170 0 92 4 172 8 178 23 35 95 45 111 15 6 -10 12 -89 13 -175 3 -133 6 -158
21 -173 21 -21 79 -23 124 -4 29 12 31 15 21 35 -7 13 -13 85 -14 189 -3 189
-13 224 -72 264 -46 31 -116 26 -172 -11 l-40 -27 -23 27 c-18 21 -33 27 -75
29 l-52 3 0 -87z"/>
</g>
</svg>
